<?xml version="1.0" encoding="utf-8"?>
<!-- Generator: Adobe Illustrator 24.0.1, SVG Export Plug-In . SVG Version: 6.00 Build 0)  -->
<svg version="1.1" id="Layer_1" xmlns="http://www.w3.org/2000/svg" xmlns:xlink="http://www.w3.org/1999/xlink" x="0px" y="0px"
	 viewBox="0 0 864 864" style="enable-background:new 0 0 864 864;" xml:space="preserve">
<style type="text/css">
	.st0{fill:#7fff00;}
</style>
<path class="st0" d="M288,377.6c0.1,0.2,2.8,3.5,3.3,4.2c10.2,13,21.2,23.3-4.7,30.2c-25,6.6-29.1-11.4-31.5-19.1
	c-0.2-0.6-1.3-4.4-1.4-4.7c-5.7-18.2-16.1-27.3-47.8-48.7c-0.2-0.1-3.9-2.6-4-2.7c-12.1-8.3-22.6-16.1-35.2-29.4
	c-1-1.1-3.3-3.5-4.2-4.4c-21.7-22.9-31.4-24-53.4-33.6c-11.7-5.1-18.9-11.1-21-14.6c-5.2-9,0.2-20.9,1.8-21.5
	c2.9-1.1,12,11.2,14.5,9.3c2-1.4-1.7-7.7-1.4-13.4c0.2-3.3,3.5-8.7,5.2-8.3c2.4,0.6,1.9,6.9,3.3,11.9c4.4,15.3,10.7,19.8,19.1,25.6
	c20,13.7,22.4,6.8,19.9-12.1c-0.1-0.5-0.7-5-0.8-5.7c-0.6-4.7-0.7-5.8-0.8-7c-7-4.6-19.6-11.6-29-30.4c-1.5-3-11.3-22.5-10.9-39.9
	c0-0.1,0.2-5.5,0.2-5.6c0.1-5.7,0-40.3-3.6-50.2c-2.7-7.3-4.1-8.3-11.9-13.6c-12.7-8.6-9.5-6.5-15-8c1.4-2.7,13.8-4.8,24.7-3.7
	c4.5-5.8,14.9-9.9,26.7-9.3c12.5,0.6,26,12.7,31.8,22.9c5.8,10.2,5.1,12,29.4,30.1c0.1,0.1,3.6,2.7,4.2,3.1c0.8,0.6,4.9,3.6,5,3.6
	c0.6,0.4,4.6,3.3,4.7,3.4l8.9,6.4c0.1,0.1,4.2,3,4.4,3.1c0.1,0.1,3.9,2.8,4.4,3.2c4.5,3.3,12.5,9.4,21.9,17.3
	c0.2,0.2,4.5,3.8,4.5,3.9c0.1,0.1,4.6,3.9,4.7,4c1.5,1.3,4,3.5,4.8,4.2c1.2,1,3.4,3.1,3.7,3.3c10.8,9.3,35.9,12.1,49.1,12.6
	c13.3,0.4,26.7-0.7,54-13c0.1-0.1,5.4-2.5,5.5-2.5c1.5-0.7,4.2-2,5.4-2.5c22.5-10.4,37.6-12.7,40.3-9.5c6,7.3-3.9,24.8-3.8,26.5
	c0.3,5.2,10.2,11,13.7,14.1c11.3,10.1,6.9,13.1,1.3,15.7c-15,6.9-32.3,4.4-51.5,0.6l-7.2-1c-4.8-0.9-69.1-5.8-71.1,8.7
	c-0.2,1.8,10.6,7.4,15,9.7l8.7,4.5c0.1,0,3.9,2.1,4.5,2.3c1.8,1,21.9,11.6,21.6,14.2c-0.9,7.3-55.7-5.1-72.8-9.7
	c-12.1,3.4-28.4-3-29.8,2.2c-0.8,2.9,9.4,8.3,10.4,12.8c1,4.9-6.8,4.7-9.6,10.1c-1.4,2.8-4.2,9.8-7.7,20.8c-0.2,0.7-1.6,5-1.8,5.7
	c-1.9,6.1-3.4,10.6-6.1,16.8c17.8,8.8,36.4,30.2,45.6,41.8c0.4,0.5,3.1,3.9,3.1,4L288,377.6z M235,265.5c-0.1-0.1-4.3-2.1-5.3-2.5
	c-10.2-4.9-13.2-7.3-19-4.8c-3.6,1.6-10,5.9-19.2,15.5c-0.5,0.5-13.2,11.5-16.4,13.8c22,24.7,40,27.1,49.6,30.7
	c3.5-12,8-21.4,11-32.9C241.1,265.9,235.4,265.7,235,265.5z M168.7,278.9c0.1,0.1,1.7,2.1,3.1,3.9c2.1-2,4-3.9,12.4-10.6
	c0.6-0.5,3.9-3,4.6-3.6c12.1-9.6,14.5-12.7,13.6-14.4c-0.8-1.5-7.3-1.7-21.3-5.9c-10.9-3.2-17.8-6.5-23-9.2
	c5.2,10.6,2.3,16.2,3.4,20.1c0.5,1.7,2.1,4.1,1.6,7.1c-0.2,1.1-1.5,3.4-0.1,5.2L168.7,278.9z"/>
</svg>
