<?xml version="1.0" standalone="no"?>
<!DOCTYPE svg PUBLIC "-//W3C//DTD SVG 20010904//EN"
 "http://www.w3.org/TR/2001/REC-SVG-20010904/DTD/svg10.dtd">
<svg version="1.0" xmlns="http://www.w3.org/2000/svg"
 width="700.000000pt" height="210.000000pt" viewBox="0 0 700.000000 210.000000"
 preserveAspectRatio="xMidYMid meet">

<g transform="translate(0.000000,210.000000) scale(0.100000,-0.100000)"
fill="#000000" stroke="none">
<path d="M3140 2075 c-782 -24 -1040 -55 -1285 -151 -49 -20 -178 -83 -285
-140 -466 -247 -614 -302 -945 -354 -113 -18 -157 -21 -230 -14 -49 4 -152 8
-228 8 l-139 1 2 -182 c0 -128 5 -197 15 -230 19 -63 20 -63 -15 -63 -17 0
-30 -3 -30 -7 0 -5 74 -8 164 -8 90 0 168 -4 172 -8 18 -18 -27 -27 -138 -27
-116 0 -138 -6 -97 -25 12 -6 31 -35 44 -68 40 -100 90 -150 192 -190 41 -16
68 -20 358 -52 77 -9 147 -18 156 -21 14 -4 18 6 24 53 26 207 156 393 336
482 104 51 175 65 304 58 77 -4 115 -11 165 -31 231 -94 377 -299 394 -554 2
-41 6 -75 8 -77 2 -2 688 -6 1526 -10 l1522 -8 0 72 c0 263 161 495 406 583
73 26 243 36 326 19 210 -44 398 -225 453 -437 8 -32 15 -70 15 -84 0 -59 9
-70 54 -65 263 28 245 24 287 66 21 21 55 64 76 96 20 32 38 60 40 62 1 2 37
6 80 8 92 6 115 16 111 46 -2 16 -13 24 -38 31 l-36 8 4 188 c3 129 1 194 -7
208 -20 37 -167 89 -443 158 -101 25 -234 63 -296 84 -329 115 -617 149 -1377
162 -211 3 -224 -4 -106 -61 81 -39 104 -62 83 -83 -14 -14 -185 -17 -234 -5
-31 8 -115 74 -353 277 -187 160 -242 201 -317 235 -63 29 -224 66 -277 64
-20 -1 -218 -7 -441 -14z m498 -200 c56 -206 92 -345 92 -355 0 -6 -45 -10
-107 -10 -60 0 -209 -4 -333 -10 -124 -5 -340 -12 -481 -16 l-256 -7 -31 224
c-17 123 -29 225 -27 228 17 16 156 33 350 41 304 14 681 28 725 26 l35 -1 33
-120z m245 111 c44 -18 535 -420 536 -438 2 -19 -78 -7 -112 16 -36 25 -497
425 -497 432 0 9 43 3 73 -10z m-171 -5 c13 -5 64 -46 113 -92 152 -140 298
-274 340 -311 22 -20 37 -39 34 -43 -4 -3 -96 -7 -205 -8 l-199 -2 -26 100
c-51 193 -89 334 -95 349 -7 18 4 20 38 7z m-1268 -123 c8 -52 33 -243 42
-315 8 -62 14 -60 -122 -38 -171 28 -364 78 -364 95 0 11 149 141 209 183 70
48 195 117 212 117 12 0 19 -12 23 -42z m476 -513 c27 -17 -16 -30 -112 -33
-93 -4 -103 -6 -123 -30 -18 -21 -24 -23 -43 -13 -14 7 -22 21 -22 37 0 42 46
55 177 50 62 -2 117 -7 123 -11z m3962 -287 c-5 -173 -20 -213 -24 -65 -4 113
12 247 26 225 1 -2 0 -74 -2 -160z m-4207 108 c0 -22 -14 -29 -34 -17 -19 12
-6 43 16 39 10 -2 18 -12 18 -22z m4270 -337 c13 -20 -8 -24 -150 -24 -142 0
-163 4 -150 24 9 15 291 15 300 0z m-2517 -246 c337 -3 615 -10 618 -14 2 -4
0 -10 -5 -13 -11 -7 -2869 13 -2889 20 -7 2 -10 9 -6 15 7 12 665 10 2282 -8z"/>
<path d="M1385 1059 c-160 -26 -311 -139 -380 -284 -103 -217 -57 -462 119
-622 98 -90 209 -132 346 -133 226 0 420 134 493 342 33 93 40 164 27 257 -30
214 -199 390 -415 436 -77 16 -114 17 -190 4z m250 -168 c197 -92 280 -332
183 -525 -30 -59 -114 -143 -172 -170 -28 -13 -79 -29 -114 -36 -162 -29 -332
61 -409 217 -25 53 -28 68 -28 163 0 99 2 110 32 171 50 100 157 188 254 209
79 16 183 5 254 -29z"/>
<path d="M1405 900 c-115 -24 -206 -95 -257 -198 -30 -61 -33 -74 -33 -162 0
-85 3 -101 29 -154 36 -74 98 -136 173 -173 52 -25 68 -28 158 -28 89 0 106 3
156 28 70 34 142 110 177 185 21 47 26 72 26 142 1 75 -3 93 -30 150 -18 36
-51 85 -74 109 -79 80 -219 124 -325 101z m178 -70 c118 -44 197 -156 197
-280 0 -89 -22 -149 -77 -210 -151 -168 -401 -136 -503 64 -31 60 -35 78 -34
140 2 216 214 362 417 286z"/>
<path d="M1342 794 c-60 -30 -117 -91 -101 -110 5 -6 23 -17 39 -24 28 -12 33
-10 69 23 21 19 48 38 60 42 17 5 19 12 15 38 -12 68 -10 67 -82 31z"/>
<path d="M1530 806 c0 -7 -3 -27 -6 -42 -5 -27 -2 -31 35 -47 22 -10 50 -30
61 -45 l21 -26 35 19 c18 10 34 24 34 30 0 18 -86 94 -125 111 -43 18 -55 18
-55 0z"/>
<path d="M1394 691 c-16 -10 -37 -27 -47 -39 -19 -20 -18 -21 21 -41 47 -24
54 -32 43 -50 -6 -9 -24 -12 -56 -9 l-47 3 5 -43 c3 -24 12 -51 21 -60 14 -15
19 -13 49 16 55 54 78 39 48 -31 -22 -51 -18 -57 44 -57 62 0 67 7 44 52 -35
68 -6 92 46 38 16 -16 32 -30 36 -30 11 0 39 66 39 92 0 22 -4 24 -52 23 -40
0 -53 4 -56 16 -2 10 8 21 27 29 48 19 57 37 35 61 -19 21 -73 53 -79 47 -2
-2 -7 -23 -12 -48 -7 -35 -13 -46 -30 -48 -19 -3 -23 3 -28 43 -4 25 -10 47
-14 50 -4 2 -21 -4 -37 -14z m120 -123 c17 -24 8 -51 -24 -68 -40 -22 -83 27
-60 70 15 28 64 27 84 -2z"/>
<path d="M1453 554 c-9 -23 13 -40 32 -24 12 10 13 16 4 26 -15 18 -28 18 -36
-2z"/>
<path d="M1193 516 c3 -29 15 -71 26 -92 38 -73 36 -72 75 -35 l34 33 -18 32
c-10 17 -22 47 -25 67 -6 31 -12 38 -37 43 -60 12 -61 11 -55 -48z"/>
<path d="M1693 563 c-17 -3 -23 -11 -23 -32 0 -15 -11 -49 -24 -74 l-23 -47
33 -25 33 -25 22 31 c21 29 48 121 49 162 0 17 -17 20 -67 10z"/>
<path d="M1376 320 l-14 -35 36 -12 c47 -15 97 -16 145 -2 40 11 44 21 23 58
-12 22 -20 24 -94 26 l-82 1 -14 -36z"/>
<path d="M5640 1059 c-30 -5 -91 -27 -136 -49 -179 -87 -294 -272 -294 -470 0
-235 176 -457 402 -510 64 -14 186 -12 251 5 149 39 276 141 340 276 163 337
-64 728 -436 753 -40 3 -97 1 -127 -5z m246 -163 c76 -35 131 -80 170 -141
201 -315 -110 -705 -459 -575 -208 78 -308 332 -208 534 49 100 156 185 261
207 65 14 176 3 236 -25z"/>
<path d="M5640 895 c-106 -30 -194 -107 -242 -211 -19 -40 -23 -66 -23 -144 0
-83 4 -102 28 -151 36 -73 109 -146 177 -178 48 -23 68 -26 155 -26 86 0 107
3 150 24 75 37 148 111 181 184 24 54 28 74 27 152 0 128 -45 219 -140 287
-94 68 -210 91 -313 63z m227 -73 c66 -34 109 -78 143 -144 26 -52 30 -72 30
-137 0 -91 -19 -139 -81 -206 -67 -72 -127 -99 -224 -99 -67 0 -88 4 -132 27
-155 80 -219 251 -149 402 40 87 94 138 185 172 53 20 175 12 228 -15z"/>
<path d="M5612 794 c-47 -24 -112 -83 -112 -104 0 -4 16 -18 36 -31 l36 -22
35 37 c20 20 47 39 60 42 22 6 24 10 18 48 -4 22 -10 44 -14 49 -4 4 -30 -5
-59 -19z"/>
<path d="M5796 807 c-3 -6 -7 -26 -10 -44 -5 -29 -2 -33 40 -53 25 -12 52 -33
61 -46 l15 -24 39 22 c22 12 39 25 39 29 0 9 -83 84 -108 98 -46 25 -73 31
-76 18z"/>
<path d="M5650 684 c-26 -18 -50 -43 -50 -54 0 -4 18 -17 41 -29 59 -33 50
-57 -19 -53 -47 3 -52 1 -52 -18 0 -28 27 -90 39 -90 6 0 25 13 44 29 23 21
37 27 47 21 13 -8 13 -14 2 -42 -26 -64 -26 -66 7 -73 26 -5 91 1 91 9 0 1 -9
22 -21 45 -18 37 -19 46 -7 57 12 12 20 9 56 -22 l42 -36 15 36 c8 19 15 47
15 62 0 26 -2 26 -44 22 -41 -5 -66 4 -66 24 0 4 18 17 40 28 22 11 40 27 40
35 0 15 -66 65 -86 65 -6 0 -15 -21 -20 -47 -7 -38 -13 -48 -29 -48 -16 0 -22
10 -28 48 -10 51 -19 56 -57 31z m126 -119 c15 -23 15 -27 0 -50 -20 -30 -49
-32 -76 -5 -19 19 -18 40 3 68 16 21 55 14 73 -13z"/>
<path d="M5715 550 c-4 -7 -3 -16 3 -22 14 -14 45 -2 40 15 -6 16 -34 21 -43
7z"/>
<path d="M5975 560 c-38 -5 -40 -7 -46 -45 -3 -22 -13 -55 -23 -74 -17 -32
-17 -34 5 -57 12 -13 28 -24 35 -24 29 0 80 127 72 181 -3 22 -7 24 -43 19z"/>
<path d="M5454 513 c8 -57 52 -153 70 -153 7 0 25 13 40 29 27 28 27 30 12 54
-9 13 -20 44 -24 68 l-7 44 -49 3 -48 3 6 -48z"/>
<path d="M5641 320 l-20 -41 25 -10 c33 -12 146 -12 179 1 l26 10 -21 39 c-19
38 -21 39 -52 31 -28 -9 -49 -7 -100 6 -12 4 -23 -7 -37 -36z"/>
</g>
</svg>
