<?xml version="1.0" standalone="no"?>
<!DOCTYPE svg PUBLIC "-//W3C//DTD SVG 20010904//EN"
 "http://www.w3.org/TR/2001/REC-SVG-20010904/DTD/svg10.dtd">
<svg version="1.0" xmlns="http://www.w3.org/2000/svg"
 width="700.000000pt" height="195.000000pt" viewBox="0 0 700.000000 195.000000"
 preserveAspectRatio="xMidYMid meet">

<g transform="translate(0.000000,195.000000) scale(0.100000,-0.100000)"
fill="#000000" stroke="none">
<path d="M2795 1933 c-356 -22 -606 -45 -750 -69 -80 -13 -230 -56 -245 -69
-9 -8 -47 -24 -85 -36 -126 -38 -357 -130 -504 -200 -79 -38 -155 -69 -169
-69 -13 0 -81 -18 -151 -39 -230 -72 -505 -160 -550 -175 -63 -23 -80 -20
-130 22 -57 48 -102 72 -135 72 l-25 0 0 -192 c0 -150 3 -194 13 -202 17 -14
4 -56 -18 -56 -16 0 -46 -42 -46 -66 0 -9 11 -29 25 -46 14 -16 25 -40 25 -53
0 -20 7 -25 36 -31 27 -5 41 -15 53 -37 45 -84 109 -128 203 -142 78 -12 55
-22 -37 -17 -80 4 -85 3 -85 -15 0 -11 9 -32 21 -47 l20 -26 203 0 c150 0 207
3 220 13 13 10 35 11 79 6 34 -4 103 -9 152 -10 l90 -3 8 49 c23 140 42 208
79 285 117 244 397 365 666 287 105 -31 179 -77 259 -161 118 -125 178 -303
155 -464 -6 -42 -10 -77 -9 -78 2 -2 872 -22 1937 -44 250 -5 570 -11 710 -12
l255 -3 -5 40 c-3 22 -4 87 -4 145 3 179 70 336 192 451 215 202 560 205 777
7 107 -97 156 -198 181 -368 8 -57 22 -115 30 -128 25 -37 89 -59 197 -67 l97
-7 0 35 c0 63 14 83 64 96 40 10 53 21 103 85 67 86 88 100 173 120 35 8 72
23 82 34 26 26 40 130 36 262 -3 94 -6 112 -23 129 -24 24 -131 46 -480 100
-231 36 -389 55 -809 96 -107 11 -170 22 -195 34 -80 40 -148 54 -434 89 -37
5 -69 6 -72 4 -3 -3 -5 -20 -5 -38 0 -18 -3 -35 -7 -37 -5 -2 -114 4 -243 14
-129 10 -245 15 -257 12 -15 -3 -79 34 -245 144 -122 82 -280 182 -350 223
-87 52 -128 81 -130 95 -7 45 -194 66 -590 63 -167 -1 -325 -3 -353 -5z m770
-118 c90 -24 146 -67 311 -239 140 -148 171 -183 162 -190 -6 -6 -405 -26
-743 -37 -494 -17 -822 2 -865 48 -9 10 -26 45 -38 78 -12 33 -35 98 -52 145
-35 100 -36 106 -11 120 27 14 302 57 451 70 69 5 141 12 160 14 19 1 154 4
300 4 211 2 278 -1 325 -13z m312 -67 c146 -88 357 -225 442 -286 55 -39 61
-46 45 -55 -9 -5 -60 -12 -112 -15 l-94 -5 -193 194 c-168 170 -229 239 -210
239 3 0 58 -32 122 -72z m-2048 -22 c37 -39 23 -69 -46 -101 -84 -40 -316
-112 -533 -166 -46 -11 -147 -11 -154 0 -14 22 620 288 695 290 8 1 26 -10 38
-23z m801 -523 c0 -16 -12 -18 -110 -18 -98 0 -110 2 -110 18 0 15 12 17 110
17 98 0 110 -2 110 -17z m-96 -92 c9 -14 -4 -41 -19 -41 -18 0 -28 17 -21 35
6 17 32 20 40 6z m4401 -42 c9 -28 -4 -252 -15 -263 -5 -5 -16 -6 -24 -3 -13
5 -16 26 -16 121 0 63 4 126 10 140 12 31 36 34 45 5z m-6197 -171 c3 -16 -7
-18 -97 -18 -56 0 -103 4 -106 10 -15 24 10 31 103 28 83 -3 97 -6 100 -20z
m-346 -5 c23 -21 23 -50 -2 -91 -25 -41 -50 -50 -154 -58 -114 -9 -154 -1
-162 34 -4 15 -15 37 -26 49 -16 17 -18 25 -8 43 18 33 45 39 194 39 116 1
142 -2 158 -16z m6216 -5 c-3 -9 -32 -13 -98 -13 -66 0 -95 4 -97 13 -4 9 20
12 97 12 77 0 101 -3 98 -12z m-5868 -58 c0 -19 -7 -20 -99 -20 -95 0 -120 7
-106 30 3 6 50 10 106 10 92 0 99 -1 99 -20z m5868 3 c3 -10 -21 -13 -97 -13
-93 0 -113 5 -94 24 13 12 186 2 191 -11z"/>
<path d="M114 839 c-10 -17 13 -36 27 -22 12 12 4 33 -11 33 -5 0 -12 -5 -16
-11z"/>
<path d="M284 839 c-10 -17 13 -36 27 -22 12 12 4 33 -11 33 -5 0 -12 -5 -16
-11z"/>
<path d="M1459 1001 c-88 -28 -154 -69 -218 -135 -95 -100 -141 -214 -141
-351 0 -141 58 -274 162 -370 66 -61 132 -96 235 -125 88 -24 122 -25 205 -4
101 26 179 66 246 129 280 259 184 724 -177 851 -84 30 -227 32 -312 5z m241
-208 c61 -20 142 -88 171 -144 60 -118 42 -240 -48 -340 -58 -65 -124 -93
-213 -93 -125 0 -214 54 -270 166 -116 233 110 492 360 411z"/>
<path d="M1540 751 c-77 -24 -152 -94 -170 -160 -13 -49 -13 -115 2 -165 19
-62 91 -130 157 -150 67 -20 84 -20 147 -1 132 39 203 179 162 319 -33 110
-186 191 -298 157z m148 -34 c11 -12 9 -24 -17 -81 -16 -36 -26 -66 -21 -66 4
0 31 21 59 46 50 45 52 46 71 29 26 -23 52 -95 48 -131 l-3 -29 -77 3 c-43 2
-78 1 -78 -2 0 -3 27 -20 60 -38 63 -35 70 -49 45 -86 -21 -28 -101 -76 -119
-69 -7 3 -19 29 -26 59 -20 89 -21 93 -30 77 -4 -8 -13 -40 -20 -71 -6 -32
-16 -60 -21 -64 -25 -15 -149 75 -149 109 0 3 29 22 65 42 36 20 65 39 65 42
0 3 -35 4 -77 2 l-78 -4 -3 29 c-4 36 22 108 48 131 18 17 21 15 73 -29 30
-25 57 -46 60 -46 4 0 -5 26 -19 58 -14 31 -28 63 -31 70 -15 36 140 53 175
19z"/>
<path d="M1563 713 c-29 -11 -10 -20 42 -20 54 0 71 9 39 21 -18 7 -63 7 -81
-1z"/>
<path d="M1596 633 c-12 -12 -6 -33 9 -33 8 0 15 6 15 14 0 17 -14 28 -24 19z"/>
<path d="M1421 606 c-7 -8 -15 -30 -18 -50 -7 -46 12 -49 25 -3 6 17 13 40 17
50 9 20 -8 23 -24 3z"/>
<path d="M1765 603 c4 -10 11 -33 17 -50 9 -34 28 -45 28 -18 0 26 -28 85 -41
85 -7 0 -8 -7 -4 -17z"/>
<path d="M1490 545 c0 -8 7 -15 15 -15 8 0 15 7 15 15 0 8 -7 15 -15 15 -8 0
-15 -7 -15 -15z"/>
<path d="M1690 545 c0 -8 7 -15 15 -15 8 0 15 7 15 15 0 8 -7 15 -15 15 -8 0
-15 -7 -15 -15z"/>
<path d="M1572 533 c-10 -20 -5 -44 12 -55 36 -24 76 14 56 52 -13 25 -56 26
-68 3z"/>
<path d="M1527 434 c-9 -10 2 -24 19 -24 8 0 14 7 14 15 0 15 -21 21 -33 9z"/>
<path d="M1650 425 c0 -10 7 -15 18 -13 21 4 19 22 -2 26 -10 2 -16 -3 -16
-13z"/>
<path d="M1450 385 c0 -15 60 -65 78 -65 23 0 11 17 -33 48 -31 22 -45 27 -45
17z"/>
<path d="M1712 368 c-44 -34 -52 -48 -27 -48 21 0 79 54 74 69 -3 8 -19 0 -47
-21z"/>
<path d="M5485 999 c-297 -105 -432 -439 -289 -721 32 -64 121 -156 188 -197
62 -37 200 -80 258 -81 114 -1 267 67 359 159 251 251 176 665 -147 818 -74
35 -84 37 -193 40 -98 3 -125 0 -176 -18z m293 -223 c63 -32 126 -104 148
-168 23 -69 16 -168 -16 -231 -72 -143 -250 -204 -392 -134 -70 35 -131 102
-154 169 -20 62 -15 177 10 226 40 76 120 142 201 163 52 14 150 2 203 -25z"/>
<path d="M5570 748 c-35 -10 -93 -48 -118 -78 -31 -36 -54 -104 -54 -159 0
-262 349 -344 466 -109 96 192 -85 406 -294 346z m129 -19 c37 -13 37 -20 3
-106 -27 -67 -13 -69 48 -8 25 24 48 44 52 45 14 0 51 -63 60 -102 16 -73 9
-79 -85 -72 -91 7 -91 6 6 -50 26 -16 47 -34 47 -42 0 -36 -129 -121 -144 -95
-3 4 -12 40 -21 79 -9 40 -20 70 -24 68 -4 -3 -14 -37 -21 -76 -12 -64 -15
-70 -37 -70 -34 0 -112 56 -119 86 -4 14 -5 26 -3 28 2 1 30 17 62 35 31 18
57 35 57 38 0 3 -34 3 -75 0 -72 -5 -75 -5 -81 17 -8 32 12 101 39 131 l22 26
53 -45 c30 -26 58 -46 63 -46 5 0 2 17 -7 38 -9 20 -22 52 -30 70 -14 32 -14
33 18 47 40 17 75 19 117 4z"/>
<path d="M5594 705 c-17 -13 -14 -14 44 -15 62 0 82 12 40 24 -37 10 -63 7
-84 -9z"/>
<path d="M5627 634 c-14 -15 -6 -34 14 -34 14 0 19 5 17 17 -3 18 -20 27 -31
17z"/>
<path d="M5461 606 c-16 -19 -26 -86 -14 -86 5 0 15 17 22 38 7 20 15 43 17
50 8 16 -11 15 -25 -2z"/>
<path d="M5805 598 c3 -13 10 -36 13 -51 8 -32 25 -41 30 -15 4 22 -24 88 -39
88 -7 0 -9 -8 -4 -22z"/>
<path d="M5526 551 c-7 -11 18 -33 27 -24 4 3 7 12 7 20 0 15 -26 18 -34 4z"/>
<path d="M5724 549 c-3 -6 -1 -16 4 -21 13 -13 45 8 36 23 -7 12 -31 11 -40
-2z"/>
<path d="M5610 535 c-10 -12 -10 -21 -2 -40 21 -45 77 -23 70 27 -4 28 -48 37
-68 13z"/>
<path d="M5567 444 c-14 -15 -6 -34 14 -34 14 0 19 5 17 17 -3 18 -20 27 -31
17z"/>
<path d="M5690 435 c-10 -12 -9 -16 5 -21 23 -9 40 10 22 25 -11 9 -17 8 -27
-4z"/>
<path d="M5490 388 c0 -8 10 -24 23 -35 26 -24 67 -39 67 -24 0 6 -10 16 -22
22 -13 6 -33 21 -45 32 -18 16 -23 17 -23 5z"/>
<path d="M5759 377 c-14 -12 -35 -27 -45 -34 -18 -10 -18 -11 -1 -18 20 -8 87
38 87 61 0 19 -10 17 -41 -9z"/>
</g>
</svg>
