<?xml version="1.0" standalone="no"?>
<!DOCTYPE svg PUBLIC "-//W3C//DTD SVG 20010904//EN"
 "http://www.w3.org/TR/2001/REC-SVG-20010904/DTD/svg10.dtd">
<svg version="1.0" xmlns="http://www.w3.org/2000/svg"
 width="700.000000pt" height="226.000000pt" viewBox="0 0 700.000000 226.000000"
 preserveAspectRatio="xMidYMid meet">

<g transform="translate(0.000000,226.000000) scale(0.100000,-0.100000)"
fill="#000000" stroke="none">
<path d="M4736 2234 c-3 -9 -6 -169 -6 -356 l0 -340 -47 6 c-45 6 -151 71
-486 299 -16 10 -31 16 -35 12 -10 -9 58 -60 278 -210 136 -92 159 -112 140
-125 -8 -5 -22 -10 -30 -10 -19 0 -175 112 -548 394 -86 65 -102 86 -65 86 14
0 94 -53 164 -108 16 -13 34 -22 41 -20 11 4 -93 84 -159 123 -18 11 -33 23
-33 26 0 4 -25 19 -56 34 -47 22 -79 28 -193 37 -182 14 -812 3 -1001 -17
-200 -21 -485 -63 -545 -80 -27 -8 -102 -28 -165 -45 -162 -44 -219 -60 -440
-125 -107 -32 -213 -61 -235 -67 -22 -5 -80 -22 -130 -37 -49 -16 -146 -45
-215 -66 -69 -20 -150 -45 -180 -55 -232 -76 -355 -111 -374 -107 -11 3 -41
13 -66 23 -87 33 -148 1 -202 -107 -41 -82 -78 -222 -78 -295 l0 -64 70 0 70
0 0 -134 c0 -74 4 -146 9 -159 18 -46 131 -101 299 -146 74 -20 258 -41 362
-41 l106 0 11 86 c30 221 175 379 410 451 78 23 277 24 348 1 170 -55 291
-153 362 -293 31 -60 53 -174 53 -269 l0 -86 1560 0 1559 0 0 98 c-1 178 41
285 160 402 63 63 90 82 162 112 105 46 206 63 316 54 102 -9 168 -27 256 -74
158 -82 271 -255 279 -426 1 -33 7 -50 17 -53 9 -3 72 -29 141 -59 93 -41 139
-55 180 -57 79 -3 79 19 1 94 -34 32 -66 59 -71 59 -22 0 -8 18 19 23 41 8 90
62 103 113 11 40 15 44 43 44 40 0 55 16 55 57 0 37 -21 53 -70 53 l-32 0 7
58 c4 31 11 61 16 67 22 23 8 35 -40 35 -28 0 -53 5 -56 10 -4 6 14 35 40 65
45 54 48 55 99 55 62 0 89 22 84 66 -3 24 -14 32 -88 65 -146 64 -216 89 -317
110 -122 25 -346 59 -395 59 -33 0 -42 6 -69 43 -17 23 -34 48 -38 55 -6 10
-54 17 -172 24 -185 12 -439 0 -692 -31 -84 -11 -221 -22 -304 -25 l-153 -6 0
339 c0 325 -2 371 -20 371 -4 0 -11 -7 -14 -16z m-1186 -273 c180 -10 199 -16
315 -99 44 -32 173 -125 287 -206 115 -81 210 -152 214 -157 3 -5 -313 -9
-796 -9 l-802 0 7 218 c4 119 9 220 11 223 3 6 115 19 264 33 76 6 353 5 500
-3z m-820 -173 c0 -174 -10 -298 -24 -298 -18 0 -320 102 -333 112 -7 6 -13
16 -13 23 0 7 57 72 128 143 126 130 153 148 220 151 22 1 22 0 22 -131z m24
-443 c9 -9 29 -15 48 -14 55 4 172 -1 166 -6 -3 -3 -48 -6 -99 -7 -79 -1 -98
-4 -116 -21 -22 -20 -23 -20 -43 -2 -23 21 -25 36 -8 53 16 16 33 15 52 -3z
m-15 -119 c8 -10 8 -16 -3 -25 -10 -9 -16 -8 -26 3 -12 15 -6 36 9 36 5 0 14
-6 20 -14z m4064 -252 c-21 -23 -33 -44 -31 -58 2 -17 -2 -21 -22 -21 -14 0
-25 5 -25 12 0 16 83 103 99 103 7 0 -2 -16 -21 -36z m-6343 -14 l0 -40 -70 0
-70 0 0 40 0 40 70 0 70 0 0 -40z m6373 -57 c-7 -2 -21 -2 -30 0 -10 3 -4 5
12 5 17 0 24 -2 18 -5z m75 -55 c8 -8 9 -15 1 -25 -9 -10 -48 -13 -158 -13
-154 0 -184 7 -162 34 11 13 39 16 160 16 99 0 151 -4 159 -12z"/>
<path d="M6885 1163 c-24 -5 -79 -78 -70 -93 3 -5 19 -10 34 -10 23 0 34 9 60
51 17 28 31 52 31 55 0 5 -25 3 -55 -3z"/>
<path d="M1439 1066 c-300 -86 -464 -418 -350 -711 50 -129 131 -218 256 -282
76 -39 140 -53 247 -53 115 0 188 21 285 82 256 161 320 526 135 771 -55 72
-165 155 -243 181 -69 24 -263 31 -330 12z m236 -121 c127 -33 216 -108 277
-233 30 -61 33 -74 32 -157 0 -107 -24 -177 -84 -253 -194 -244 -576 -186
-691 105 -18 45 -23 78 -24 148 0 81 4 97 32 157 56 119 150 199 274 232 71
19 112 19 184 1z"/>
<path d="M1480 907 c-63 -18 -109 -48 -164 -107 -72 -77 -90 -126 -91 -245 0
-94 2 -105 33 -167 64 -131 179 -202 327 -201 111 0 179 28 254 102 86 85 106
133 106 261 0 93 -3 112 -27 162 -33 72 -98 137 -171 172 -68 34 -193 44 -267
23z m217 -58 c78 -29 163 -114 188 -188 23 -71 18 -179 -13 -242 -29 -59 -84
-114 -147 -147 -43 -23 -62 -27 -135 -27 -73 0 -92 4 -135 27 -195 103 -237
344 -87 501 86 90 212 119 329 76z"/>
<path d="M1475 791 c-51 -23 -118 -96 -136 -147 -34 -99 -4 -221 70 -286 59
-52 115 -71 190 -66 81 6 137 33 185 90 116 135 66 345 -97 413 -51 21 -162
19 -212 -4z m79 -47 c8 -21 8 -109 0 -101 -11 11 -46 -14 -40 -29 7 -18 10
-18 -59 10 l-58 23 39 42 c31 36 79 67 105 70 4 1 10 -6 13 -15z m146 -20 c32
-21 66 -62 58 -69 -6 -5 -87 -45 -93 -45 -3 0 -5 7 -5 16 0 12 -7 15 -25 12
-23 -5 -25 -3 -25 36 0 22 3 51 6 64 8 27 29 23 84 -14z m-130 -129 c0 -8 -4
-15 -9 -15 -13 0 -22 16 -14 24 11 11 23 6 23 -9z m52 0 c0 -5 -5 -11 -10 -13
-5 -1 -9 4 -9 13 0 9 4 14 9 13 5 -2 10 -8 10 -13z m171 -18 c11 -30 -25 -145
-52 -161 -4 -3 -27 17 -50 44 -38 45 -40 50 -21 50 18 0 21 4 16 24 -5 22 -2
26 41 39 62 19 60 19 66 4z m-324 -13 c38 -6 42 -9 28 -19 -22 -16 -22 -31 -1
-43 15 -8 13 -14 -16 -51 -19 -23 -38 -40 -44 -38 -20 6 -56 91 -56 130 0 36
2 39 23 34 12 -4 42 -9 66 -13z m134 0 c9 -10 -4 -34 -19 -34 -8 0 -14 9 -14
20 0 19 19 27 33 14z m-53 -23 c0 -17 -18 -21 -24 -6 -3 9 0 15 9 15 8 0 15
-4 15 -9z m100 -7 c0 -9 -5 -14 -12 -12 -18 6 -21 28 -4 28 9 0 16 -7 16 -16z
m-50 -34 c0 -5 -7 -10 -15 -10 -8 0 -15 5 -15 10 0 6 7 10 15 10 8 0 15 -4 15
-10z m5 -47 c11 16 15 13 44 -31 17 -27 31 -51 31 -55 0 -3 -22 -10 -48 -16
-43 -9 -114 -2 -129 12 -3 3 8 28 23 56 27 48 29 49 47 33 18 -16 20 -16 32 1z"/>
<path d="M5720 1061 c-92 -30 -142 -61 -216 -135 -111 -111 -155 -218 -155
-376 0 -191 83 -348 235 -446 99 -63 175 -84 300 -84 81 0 114 5 171 25 165
58 287 190 339 364 20 69 21 199 1 274 -48 184 -197 334 -380 383 -72 20 -228
17 -295 -5z m293 -131 c117 -44 213 -145 248 -261 76 -249 -100 -503 -357
-517 -183 -10 -341 91 -405 258 -58 152 -15 329 105 437 120 108 265 137 409
83z"/>
<path d="M5775 907 c-106 -36 -188 -106 -231 -200 -26 -55 -29 -73 -29 -157 0
-84 3 -102 28 -152 39 -79 104 -143 184 -181 58 -27 78 -31 148 -31 104 1 176
28 250 95 192 176 143 499 -91 606 -68 31 -196 41 -259 20z m252 -76 c191
-102 226 -351 71 -502 -66 -64 -117 -84 -218 -84 -69 0 -93 4 -128 23 -63 34
-120 89 -150 146 -23 44 -27 63 -27 141 0 78 4 97 27 141 26 50 85 111 130
135 91 49 203 49 295 0z"/>
<path d="M5765 789 c-134 -67 -186 -219 -121 -352 116 -237 470 -171 493 92
10 110 -40 203 -136 253 -68 36 -173 39 -236 7z m88 -99 c5 -55 5 -56 -21 -55
-21 0 -26 -4 -24 -19 2 -10 0 -17 -5 -15 -4 2 -29 12 -56 23 -26 10 -47 24
-47 30 0 31 124 117 141 98 4 -4 9 -32 12 -62z m163 15 c18 -18 34 -37 34 -43
0 -10 -72 -52 -90 -52 -6 0 -10 6 -10 14 0 15 -24 28 -34 19 -10 -10 -7 -43 5
-43 5 0 7 -4 4 -10 -3 -5 -11 -10 -17 -10 -11 0 -4 152 8 171 8 14 64 -12 100
-46z m-159 -122 c-3 -3 -11 -2 -17 2 -8 5 -7 11 2 22 12 15 13 14 16 -1 2 -10
1 -20 -1 -23z m229 -8 c9 -22 -14 -106 -36 -135 l-19 -25 -48 48 c-43 43 -46
47 -24 47 19 0 23 4 19 25 -5 22 0 26 41 39 61 18 61 18 67 1z m-325 -10 c81
-17 84 -19 74 -35 -5 -8 -11 -6 -19 6 -14 19 -36 11 -36 -12 0 -8 7 -17 15
-20 11 -5 7 -16 -22 -50 -20 -25 -41 -43 -47 -41 -33 11 -77 167 -47 167 5 0
42 -7 82 -15z m134 -15 c0 -22 -29 -18 -33 3 -3 14 1 18 15 15 10 -2 18 -10
18 -18z m45 -15 c0 -8 -4 -15 -9 -15 -13 0 -22 16 -14 24 11 11 23 6 23 -9z
m-50 -36 c0 -5 -7 -9 -15 -9 -9 0 -12 6 -9 15 6 15 24 11 24 -6z m-24 -46 c13
-17 15 -17 28 0 14 18 16 16 41 -23 42 -66 42 -67 -12 -78 -44 -10 -115 -3
-129 11 -5 5 47 107 55 107 2 0 10 -8 17 -17z"/>
<path d="M20 983 c0 -42 131 -223 162 -223 4 0 8 54 8 120 l0 120 -85 0 c-73
0 -85 -2 -85 -17z"/>
</g>
</svg>
