<?xml version="1.0" standalone="no"?>
<!DOCTYPE svg PUBLIC "-//W3C//DTD SVG 20010904//EN"
 "http://www.w3.org/TR/2001/REC-SVG-20010904/DTD/svg10.dtd">
<svg version="1.0" xmlns="http://www.w3.org/2000/svg"
 width="700.000000pt" height="198.000000pt" viewBox="0 0 700.000000 198.000000"
 preserveAspectRatio="xMidYMid meet">

<g transform="translate(0.000000,198.000000) scale(0.100000,-0.100000)"
fill="#000000" stroke="none">
<path d="M2455 1960 c-253 -19 -481 -87 -715 -214 -160 -87 -380 -196 -445
-221 -119 -45 -203 -55 -504 -65 -309 -10 -492 -29 -593 -60 -130 -40 -183
-137 -182 -335 1 -181 31 -238 223 -412 98 -89 130 -113 173 -126 67 -21 498
-43 509 -26 3 6 9 37 13 68 22 189 130 367 258 426 82 38 147 47 306 43 141
-3 150 -4 214 -35 114 -54 203 -154 252 -285 25 -65 46 -203 46 -295 l0 -53
1545 0 1544 0 -1 133 c-1 114 2 141 21 197 58 165 165 275 312 321 45 14 91
19 177 19 196 0 297 -36 396 -140 92 -96 151 -243 163 -401 6 -87 6 -88 35
-94 41 -10 171 4 263 27 181 45 370 180 463 330 37 59 75 323 58 393 -8 32
-26 40 -222 98 -459 136 -925 208 -1464 223 l-215 7 -70 -30 -70 -30 -207 7
-207 7 -83 58 c-121 83 -348 232 -460 300 -89 55 -96 62 -91 86 4 24 1 27 -39
37 -119 30 -157 35 -328 43 -221 10 -934 9 -1075 -1z m994 -90 c122 -8 174
-15 205 -29 22 -10 157 -105 298 -210 142 -105 267 -196 278 -203 11 -7 20
-16 20 -19 0 -6 -176 -12 -745 -26 -495 -13 -699 -8 -922 23 l-42 6 111 222
c60 121 111 222 113 224 2 3 295 15 470 20 28 1 124 -3 214 -8z m-850 -221
c-55 -112 -105 -209 -110 -215 -7 -9 -27 -8 -77 1 -132 26 -332 77 -332 85 0
11 409 296 446 311 25 9 163 28 172 23 2 -1 -43 -93 -99 -205z m1452 77 c96
-63 232 -152 302 -198 113 -73 126 -84 111 -95 -10 -7 -25 -13 -34 -13 -13 0
-550 377 -584 411 -6 5 -2 9 11 9 11 0 99 -51 194 -114z m-1489 -493 c3 -27 6
-28 66 -31 l62 -3 0 31 c0 16 5 30 10 30 7 0 10 -22 8 -57 l-3 -58 -80 0 -80
0 -3 58 c-3 57 14 83 20 30z"/>
<path d="M1309 966 c-397 -140 -431 -690 -54 -877 74 -37 94 -42 172 -46 154
-9 261 28 367 128 226 211 191 583 -72 750 -113 72 -285 90 -413 45z m305
-131 c198 -94 266 -344 142 -520 -74 -104 -200 -164 -320 -151 -204 21 -356
219 -316 413 48 231 288 356 494 258z"/>
<path d="M1377 836 c-95 -27 -189 -114 -222 -205 -21 -60 -21 -168 0 -230 23
-69 99 -152 173 -188 47 -22 70 -27 137 -27 134 -1 232 58 295 176 32 58 34
70 34 153 0 101 -17 150 -79 222 -75 88 -224 132 -338 99z m206 -64 c94 -41
167 -154 167 -257 0 -72 -34 -147 -91 -200 -64 -59 -108 -78 -189 -79 -261 -2
-382 314 -188 489 28 25 71 52 97 60 58 19 144 13 204 -13z"/>
<path d="M1360 754 c-38 -16 -110 -81 -110 -99 0 -6 15 -18 33 -27 31 -15 33
-14 49 8 10 12 35 30 57 40 22 9 38 22 36 28 -2 6 -6 23 -9 39 -7 31 -9 31
-56 11z"/>
<path d="M1515 733 c-5 -30 -3 -40 11 -48 9 -5 35 -25 55 -43 l39 -34 35 22
35 22 -21 29 c-20 29 -112 89 -135 89 -7 0 -15 -17 -19 -37z"/>
<path d="M1368 629 c-18 -17 -28 -32 -23 -35 44 -19 74 -45 68 -60 -5 -13 -15
-15 -49 -10 -24 3 -45 2 -48 -3 -6 -9 10 -69 24 -91 8 -12 15 -9 45 20 27 26
38 31 47 22 9 -9 7 -21 -7 -52 -10 -22 -15 -44 -11 -48 10 -9 92 -9 102 0 4 4
0 26 -8 47 -13 33 -14 42 -3 51 9 7 15 8 19 1 4 -6 20 -20 36 -31 l30 -22 15
36 c8 19 15 44 15 56 0 17 -6 20 -47 17 -60 -3 -69 20 -18 47 44 24 44 41 3
66 -46 28 -55 25 -63 -20 -5 -31 -11 -40 -26 -40 -20 0 -23 4 -33 53 -8 35
-28 34 -68 -4z m130 -81 c19 -19 14 -56 -9 -68 -16 -9 -26 -8 -45 5 -27 17
-29 27 -14 56 12 21 50 25 68 7z"/>
<path d="M1457 534 c-14 -14 -7 -35 11 -32 9 2 17 10 17 17 0 16 -18 25 -28
15z"/>
<path d="M1213 486 c5 -49 41 -137 56 -136 3 1 19 11 35 24 28 23 28 24 10 51
-10 15 -20 46 -24 69 -5 39 -7 41 -44 44 l-39 3 6 -55z"/>
<path d="M1653 533 c-7 -2 -13 -14 -13 -26 0 -12 -9 -41 -19 -64 l-19 -41 28
-27 c16 -15 33 -25 38 -21 18 11 49 91 54 139 l6 47 -32 -1 c-17 0 -37 -3 -43
-6z"/>
<path d="M1379 317 c-9 -20 -9 -31 -1 -39 17 -17 115 -22 156 -8 35 11 35 12
23 43 -13 31 -14 32 -90 32 -75 1 -76 0 -88 -28z"/>
<path d="M5507 979 c-89 -21 -197 -93 -256 -172 -165 -218 -114 -537 111 -687
292 -195 686 -23 740 323 37 240 -114 471 -347 533 -56 15 -190 17 -248 3z
m277 -148 c72 -35 132 -95 168 -169 19 -40 23 -63 23 -147 0 -90 -3 -105 -28
-153 -57 -108 -137 -169 -254 -193 -148 -30 -299 44 -373 183 -29 53 -35 76
-38 145 -5 97 12 157 68 230 102 136 282 179 434 104z"/>
<path d="M5560 841 c-96 -20 -191 -98 -233 -189 -17 -37 -22 -66 -22 -137 0
-78 4 -97 28 -147 55 -112 168 -182 297 -183 65 0 84 4 142 33 303 149 220
601 -114 626 -35 3 -79 1 -98 -3z m200 -77 c103 -56 156 -151 148 -267 -10
-152 -126 -261 -278 -262 -247 -1 -374 302 -200 476 92 92 221 113 330 53z"/>
<path d="M5513 748 c-40 -19 -103 -78 -103 -96 0 -5 15 -15 33 -24 33 -16 34
-16 60 12 14 15 40 33 56 40 26 10 30 16 25 39 -13 60 -10 59 -71 29z"/>
<path d="M5687 763 c-3 -5 -8 -22 -11 -40 -7 -30 -5 -33 33 -52 22 -12 46 -30
54 -42 14 -19 17 -20 45 -5 17 9 33 20 37 25 9 16 -52 77 -100 100 -50 24 -52
24 -58 14z"/>
<path d="M5528 631 l-32 -28 42 -27 c30 -18 40 -31 35 -42 -5 -13 -15 -15 -50
-10 -41 5 -43 4 -43 -20 0 -14 7 -39 16 -56 l16 -30 26 23 c15 13 30 28 34 33
4 6 13 5 22 -3 14 -12 13 -17 -4 -51 -10 -21 -16 -40 -13 -44 4 -3 28 -6 55
-6 54 0 59 10 33 59 -13 26 -13 30 1 42 12 10 20 7 48 -20 28 -28 34 -30 45
-17 7 8 15 33 18 56 l6 40 -48 -2 c-59 -4 -69 14 -23 42 18 11 38 22 43 24 15
7 -52 66 -74 66 -14 0 -20 -10 -25 -40 -5 -31 -11 -40 -26 -40 -15 0 -21 9
-26 40 -8 49 -30 53 -76 11z m141 -93 c16 -41 -22 -78 -59 -58 -23 13 -29 30
-19 58 6 16 16 22 39 22 23 0 33 -6 39 -22z"/>
<path d="M5617 534 c-14 -15 -6 -34 14 -34 14 0 19 5 17 17 -3 18 -20 27 -31
17z"/>
<path d="M5373 491 c6 -50 37 -124 58 -137 6 -3 22 5 36 18 24 24 24 26 9 56
-9 17 -20 48 -24 69 -7 35 -11 38 -46 41 l-39 3 6 -50z"/>
<path d="M5813 533 c-7 -2 -13 -19 -13 -36 0 -18 -9 -46 -19 -63 l-19 -32 28
-27 c16 -15 33 -24 39 -20 21 12 52 86 58 136 l6 49 -34 -1 c-19 0 -40 -3 -46
-6z"/>
<path d="M5543 316 c-22 -42 -6 -51 87 -51 93 0 109 9 87 51 -15 28 -18 29
-87 29 -69 0 -73 -1 -87 -29z"/>
</g>
</svg>
