<?xml version="1.0" standalone="no"?>
<!DOCTYPE svg PUBLIC "-//W3C//DTD SVG 20010904//EN"
 "http://www.w3.org/TR/2001/REC-SVG-20010904/DTD/svg10.dtd">
<svg version="1.0" xmlns="http://www.w3.org/2000/svg"
 width="700.000000pt" height="191.000000pt" viewBox="0 0 700.000000 191.000000"
 preserveAspectRatio="xMidYMid meet">

<g transform="translate(0.000000,191.000000) scale(0.100000,-0.100000)"
fill="#000000" stroke="none">
<path d="M3356 1871 c-24 -26 -16 -37 79 -109 92 -69 385 -313 405 -336 7 -9
10 -19 7 -23 -4 -3 -61 -8 -127 -11 l-120 -5 -16 39 c-9 22 -17 59 -18 84 -1
43 -2 45 -33 48 -30 3 -33 1 -33 -24 0 -15 7 -35 15 -44 12 -13 14 -28 9 -60
l-7 -42 -276 5 c-367 7 -506 29 -791 124 -177 59 -292 80 -475 88 -82 4 -165
8 -184 10 -19 2 -131 7 -250 11 -221 6 -405 -6 -606 -40 -44 -8 -141 -24 -215
-36 -74 -12 -160 -29 -190 -37 -131 -35 -165 -38 -227 -19 -100 30 -110 31
-123 6 -13 -24 -8 -309 6 -377 l6 -33 -81 0 c-78 0 -82 -1 -93 -26 -11 -23
-10 -29 11 -45 19 -15 40 -19 106 -19 l84 0 25 -56 c14 -31 39 -73 55 -93 60
-75 222 -137 526 -201 113 -24 321 -75 346 -85 14 -5 18 4 24 57 18 171 92
316 226 443 127 120 262 176 426 176 291 2 548 -214 609 -511 15 -75 16 -98 5
-198 -7 -63 -10 -116 -7 -119 3 -3 643 -8 1422 -11 l1417 -5 -7 99 c-8 119 8
212 55 308 179 368 665 439 940 138 123 -135 170 -287 142 -460 -9 -51 -13
-96 -9 -99 3 -4 24 11 46 32 l39 38 107 7 108 7 39 45 c22 24 61 85 87 134 48
88 49 89 92 94 40 5 43 7 43 35 0 25 -5 31 -29 35 -23 4 -32 12 -38 36 -9 37
-29 56 -143 132 -179 119 -322 185 -618 283 -213 71 -227 72 -837 75 -681 3
-840 15 -1060 80 -111 33 -135 48 -378 232 -113 85 -237 175 -276 199 -67 41
-74 43 -146 43 -63 0 -80 -3 -94 -19z m225 -49 c30 -21 145 -106 256 -190 112
-83 221 -162 243 -174 22 -13 40 -28 40 -34 0 -15 -98 -24 -129 -12 -26 9 -62
37 -341 262 -102 82 -187 151 -189 152 -2 2 -1 10 2 19 11 27 61 17 118 -23z
m-746 -581 c3 -5 0 -13 -7 -17 -16 -10 -111 -9 -127 0 -24 15 3 26 64 26 35 0
66 -4 70 -9z m-565 -43 c116 -66 213 -188 261 -326 19 -54 38 -192 25 -181 -4
4 -16 40 -28 80 -48 172 -145 312 -298 431 -47 37 -27 35 40 -4z m3432 -29
c-40 -10 -92 -27 -116 -38 -119 -52 -236 -161 -296 -273 -45 -85 -49 -64 -5
27 82 172 276 302 450 303 35 0 30 -2 -33 -19z m-5371 -99 c91 0 130 -4 144
-14 16 -12 17 -16 6 -30 -15 -18 -72 -20 -295 -9 -108 5 -139 9 -144 21 -11
29 28 44 98 38 36 -3 122 -6 191 -6z m4299 -219 c-24 -6 -25 -11 -28 -85 -3
-70 0 -83 23 -117 14 -21 25 -41 25 -44 0 -3 -20 -5 -45 -5 l-45 0 0 130 0
130 48 -1 c36 -1 41 -3 22 -8z m133 2 c-22 -4 -23 -9 -23 -91 0 -70 4 -93 20
-117 28 -42 26 -47 -22 -43 l-43 3 -3 114 c-1 63 0 121 2 128 4 8 21 13 48 12
24 -1 33 -4 21 -6z m140 0 c-22 -4 -23 -9 -23 -92 0 -73 3 -93 20 -114 29 -37
25 -47 -19 -47 -49 0 -51 6 -51 130 0 126 2 130 54 129 22 -1 31 -4 19 -6z
m147 -2 c0 -5 -9 -7 -20 -4 -19 5 -20 0 -20 -83 0 -73 4 -94 20 -114 30 -38
25 -50 -20 -50 l-40 0 0 130 0 130 40 0 c22 0 40 -4 40 -9z m1909 -65 c19 -23
-17 -36 -97 -36 -73 0 -103 15 -80 38 18 18 162 16 177 -2z"/>
<path d="M1691 1165 c-148 -42 -293 -156 -360 -284 -68 -128 -83 -311 -36
-452 63 -187 221 -334 409 -378 116 -28 276 -11 380 40 209 103 326 291 326
520 0 241 -147 453 -375 539 -79 29 -263 38 -344 15z m320 -168 c156 -75 249
-222 249 -392 0 -161 -99 -313 -248 -383 -51 -24 -68 -27 -172 -27 -111 0
-118 1 -185 34 -125 62 -209 176 -235 320 -12 70 -8 116 21 200 40 116 126
206 245 256 53 23 70 25 164 22 90 -3 113 -7 161 -30z"/>
<path d="M1754 951 c-166 -43 -284 -204 -271 -371 12 -161 122 -288 280 -325
161 -37 326 46 399 201 25 53 30 76 30 141 1 143 -66 255 -192 322 -51 27 -75
34 -138 37 -42 2 -91 0 -108 -5z m177 -66 c22 -15 -20 -26 -93 -26 -67 0 -110
14 -77 25 8 2 21 7 29 10 19 7 125 0 141 -9z m9 -92 c76 -47 110 -106 110
-188 0 -102 -66 -184 -166 -206 -43 -10 -59 -9 -102 5 -67 23 -98 48 -127 107
-32 63 -33 131 -2 189 27 51 82 99 129 111 44 11 127 2 158 -18z m153 -45 c15
-24 30 -62 33 -84 l5 -39 -30 34 c-26 30 -61 106 -61 134 0 20 27 -2 53 -45z
m-487 -24 c-3 -25 -16 -67 -28 -92 l-22 -47 -4 42 c-2 27 5 59 19 92 27 64 44
67 35 5z m475 -282 c-16 -30 -109 -112 -127 -112 -14 0 -14 4 4 32 36 56 150
131 123 80z m-380 -50 c24 -16 53 -39 63 -50 17 -20 17 -22 2 -22 -21 0 -71
25 -113 57 -65 48 -24 61 48 15z"/>
<path d="M1874 740 c-4 -27 -13 -55 -20 -61 -11 -9 -9 -15 11 -31 29 -23 32
-58 7 -81 -43 -40 -108 6 -84 59 7 13 19 27 27 30 10 4 12 11 6 22 -5 10 -12
36 -16 60 -7 41 -9 43 -34 37 -14 -3 -41 -21 -59 -39 l-33 -32 50 -32 c38 -23
49 -35 44 -48 -5 -13 -16 -15 -59 -12 l-54 5 0 -34 c0 -32 24 -93 36 -93 3 0
24 16 47 35 36 31 43 34 56 20 13 -13 13 -20 -7 -61 -12 -25 -20 -50 -17 -55
8 -12 122 -12 130 1 3 5 -3 31 -14 56 -32 71 -10 85 49 34 19 -16 40 -29 46
-30 15 0 44 65 44 101 l0 30 -60 -7 c-57 -6 -60 -5 -60 15 0 14 13 27 43 42
53 27 51 24 38 48 -10 18 -87 71 -104 71 -3 0 -9 -22 -13 -50z"/>
<path d="M1814 615 c-8 -19 3 -35 26 -35 19 0 30 17 23 38 -6 17 -42 15 -49
-3z"/>
<path d="M5719 1066 c-126 -35 -257 -139 -316 -251 -46 -88 -63 -157 -63 -255
0 -146 50 -269 151 -369 281 -281 760 -156 873 228 20 69 21 199 1 276 -46
176 -193 324 -369 371 -63 17 -215 17 -277 0z m236 -131 c148 -39 258 -161
285 -318 21 -120 -17 -235 -110 -328 -63 -64 -123 -95 -209 -111 -201 -38
-408 113 -442 320 -31 191 95 386 281 436 72 19 123 19 195 1z"/>
<path d="M5745 863 c-50 -20 -105 -59 -137 -98 -135 -161 -81 -413 108 -506
57 -28 175 -38 240 -20 98 26 187 117 219 222 50 164 -44 349 -204 404 -58 20
-175 19 -226 -2z m200 -53 c9 -15 -24 -25 -80 -25 -63 1 -96 12 -75 25 20 13
147 13 155 0z m21 -90 c19 -12 46 -43 61 -68 87 -148 -48 -328 -212 -282 -149
42 -195 223 -82 328 58 54 164 64 233 22z m127 -33 c28 -49 44 -107 28 -107
-16 0 -61 84 -68 126 -8 46 6 40 40 -19z m-463 -90 c-12 -31 -26 -57 -31 -57
-23 0 3 121 34 158 22 27 20 -39 -3 -101z m460 -176 c0 -27 -112 -122 -126
-108 -10 10 30 59 70 88 41 30 56 35 56 20z m-364 -52 c37 -22 69 -57 61 -65
-14 -14 -137 65 -137 88 0 12 37 1 76 -23z"/>
<path d="M5785 698 c-26 -14 -65 -50 -65 -59 0 -4 9 -11 20 -14 11 -4 33 -17
49 -31 25 -21 30 -22 41 -9 7 8 20 15 30 15 20 0 50 -31 50 -52 0 -19 -31 -48
-52 -48 -16 0 -48 31 -48 47 0 5 -25 11 -55 12 -53 1 -55 1 -55 -24 0 -27 25
-85 37 -85 4 0 22 14 40 32 30 29 35 31 49 16 14 -14 14 -19 -5 -56 -12 -23
-21 -43 -21 -46 0 -11 79 -16 103 -7 l28 11 -22 41 c-17 35 -19 44 -7 55 12
12 19 10 48 -16 19 -16 39 -29 43 -30 11 0 37 64 37 90 0 18 -6 20 -55 20 -68
0 -73 19 -15 52 22 13 40 26 40 29 0 12 -70 69 -85 69 -8 0 -17 -12 -21 -27
-18 -85 -44 -94 -58 -20 -10 49 -17 54 -51 35z"/>
<path d="M5840 550 c0 -13 7 -20 20 -20 13 0 20 7 20 20 0 13 -7 20 -20 20
-13 0 -20 -7 -20 -20z"/>
</g>
</svg>
