<?xml version="1.0" standalone="no"?>
<!DOCTYPE svg PUBLIC "-//W3C//DTD SVG 20010904//EN"
 "http://www.w3.org/TR/2001/REC-SVG-20010904/DTD/svg10.dtd">
<svg version="1.0" xmlns="http://www.w3.org/2000/svg"
 width="700.000000pt" height="190.000000pt" viewBox="0 0 700.000000 190.000000"
 preserveAspectRatio="xMidYMid meet">

<g transform="translate(0.000000,190.000000) scale(0.100000,-0.100000)"
fill="#000000" stroke="none">
<path d="M2875 1885 c-198 -19 -368 -42 -530 -72 -77 -14 -186 -27 -242 -30
-86 -4 -103 -8 -108 -23 -7 -21 -45 -30 -131 -30 -53 0 -65 -3 -74 -20 -9 -18
-21 -20 -101 -20 -86 0 -90 -1 -99 -25 -9 -24 -13 -25 -92 -25 -87 0 -100 -4
-111 -32 -5 -15 -20 -18 -101 -18 -92 0 -94 -1 -100 -25 -6 -24 -8 -25 -100
-25 l-94 0 -10 -28 c-9 -27 -18 -31 -208 -80 -219 -57 -406 -99 -589 -133 -66
-12 -126 -28 -134 -35 -12 -11 -13 -25 -5 -74 8 -46 7 -63 -3 -72 -10 -11 -10
-23 1 -65 17 -63 24 -76 42 -69 9 3 25 -19 48 -67 56 -117 113 -197 201 -283
128 -126 285 -194 450 -194 l70 0 0 148 c1 165 20 257 76 363 70 130 211 232
369 265 110 23 341 15 430 -16 274 -93 414 -328 396 -665 -3 -60 -8 -122 -12
-137 l-6 -28 479 0 c264 0 940 3 1502 7 l1021 6 -5 121 c-12 233 43 394 178
529 111 111 221 167 370 187 352 49 696 -261 701 -630 0 -52 -2 -107 -6 -121
l-7 -25 70 7 c91 10 209 50 279 94 105 66 110 68 180 57 115 -17 129 5 49 80
-52 49 -52 49 -40 87 6 21 29 61 52 89 l40 51 -55 36 c-31 19 -82 51 -113 71
-439 279 -517 314 -808 370 -126 23 -170 27 -435 31 -168 3 -387 0 -510 -7
-476 -25 -417 -26 -495 7 -39 17 -205 92 -370 168 -558 255 -624 284 -682 295
-90 18 -466 21 -628 5z m655 -30 c14 -4 212 -92 440 -195 228 -104 460 -208
515 -233 54 -24 100 -48 102 -53 2 -5 -99 -7 -236 -4 l-239 5 -44 31 c-24 17
-140 102 -259 190 -119 87 -246 180 -283 207 -61 43 -80 75 -38 63 10 -2 28
-8 42 -11z m-118 -25 c36 -20 597 -443 597 -451 1 -3 -220 -9 -489 -12 -544
-6 -556 -5 -658 56 -73 43 -165 143 -234 252 -81 128 -80 121 -6 134 58 10
197 26 308 35 25 2 137 3 250 2 162 -1 211 -4 232 -16z m-659 -469 c21 -5 41
-12 45 -16 25 -25 -130 -34 -183 -11 -30 14 -29 15 15 29 24 9 82 7 123 -2z
m3717 -442 c143 -82 383 -231 420 -260 l25 -20 -25 6 c-48 13 -256 128 -380
211 -222 147 -241 179 -40 63z m-2815 -349 c336 -4 776 -9 979 -9 204 -1 372
-3 374 -5 2 -3 6 -22 9 -44 l5 -39 -438 -6 c-240 -4 -871 -7 -1401 -7 l-963 0
0 58 c0 32 3 61 6 65 6 6 206 4 1429 -13z"/>
<path d="M1341 1164 c-138 -37 -279 -141 -349 -257 -60 -99 -84 -188 -84 -307
0 -173 52 -300 173 -422 73 -73 190 -137 287 -157 84 -17 199 -13 282 10 250
68 435 314 429 569 -6 234 -126 423 -336 529 -98 49 -288 66 -402 35z m264
-119 c132 -35 238 -122 300 -248 31 -63 38 -89 42 -159 10 -150 -31 -263 -132
-364 -223 -225 -601 -158 -736 130 -163 348 157 737 526 641z"/>
<path d="M1347 986 c-117 -49 -182 -110 -234 -222 -25 -53 -28 -70 -28 -169 0
-104 2 -114 33 -177 42 -86 137 -177 219 -209 47 -18 78 -23 158 -23 91 -1
106 2 165 30 274 130 333 478 116 682 -85 81 -149 106 -271 110 -87 2 -107 -1
-158 -22z m296 -69 c74 -37 134 -98 171 -177 26 -56 31 -76 30 -145 0 -69 -4
-89 -32 -146 -117 -242 -433 -278 -599 -68 -102 128 -96 319 13 448 34 41 98
84 154 104 70 26 192 18 263 -16z"/>
<path d="M1386 893 c-73 -22 -166 -118 -190 -197 -63 -201 72 -401 279 -414
292 -18 446 332 236 538 -86 85 -202 111 -325 73z m164 -22 c0 -32 -14 -41
-61 -41 -46 0 -49 2 -49 25 0 24 3 25 55 25 30 0 55 -4 55 -9z m-128 -28 c3
-28 4 -28 73 -28 69 0 70 0 73 28 2 15 6 27 10 27 20 0 113 -64 132 -90 l21
-30 -26 -12 c-24 -11 -26 -16 -20 -47 4 -20 13 -51 21 -69 12 -30 17 -33 44
-27 22 5 30 3 30 -7 -1 -33 -23 -105 -42 -136 l-20 -33 -24 22 -23 22 -56 -38
c-40 -28 -54 -43 -49 -54 18 -45 16 -48 -27 -55 -48 -8 -126 2 -135 16 -4 5
-1 15 5 21 21 21 10 42 -37 75 -56 37 -59 38 -84 15 -17 -15 -19 -15 -33 3
-16 21 -45 108 -45 136 0 14 8 18 33 18 31 0 34 3 50 53 22 69 21 84 -3 92
-41 13 -14 52 70 99 56 32 58 32 62 -1z m-144 -121 c10 -7 9 -18 -7 -56 -18
-42 -23 -46 -40 -36 -13 6 -18 17 -15 28 24 73 33 82 62 64z m485 -39 c16 -54
14 -63 -13 -63 -29 0 -53 93 -27 103 23 10 26 7 40 -40z m-408 -275 c36 -24
41 -34 26 -57 -8 -12 -16 -10 -50 13 -44 31 -47 36 -29 54 15 15 12 16 53 -10z
m332 5 c4 -11 -4 -25 -27 -45 -40 -33 -56 -35 -63 -9 -3 14 5 27 32 45 42 31
49 32 58 9z"/>
<path d="M1412 730 c-101 -62 -96 -220 8 -272 69 -35 160 -15 202 45 30 41 35
121 11 167 -39 76 -147 105 -221 60z m101 -16 c9 -10 -4 -34 -18 -34 -17 0
-28 17 -20 30 7 11 28 13 38 4z m25 -82 c28 -37 3 -92 -42 -92 -56 0 -80 66
-36 102 25 20 57 16 78 -10z m-120 1 c5 -17 -26 -29 -40 -15 -6 6 -7 15 -3 22
9 14 37 9 43 -7z m195 3 c8 -21 -17 -40 -31 -23 -9 10 -8 17 0 25 16 16 25 15
31 -2z m-163 -120 c0 -8 -5 -18 -11 -22 -14 -8 -33 11 -25 25 10 16 36 13 36
-3z m124 -1 c3 -9 -1 -18 -10 -22 -19 -7 -39 11 -30 26 10 16 33 13 40 -4z"/>
<path d="M1471 617 c-21 -26 10 -65 38 -47 17 10 10 54 -10 58 -9 1 -21 -4
-28 -11z"/>
<path d="M5576 1165 c-139 -35 -280 -142 -355 -269 -187 -315 -34 -736 312
-856 79 -28 224 -37 309 -20 194 37 366 185 438 375 35 92 40 268 10 367 -54
180 -184 319 -365 388 -77 30 -259 37 -349 15z m246 -116 c171 -37 313 -176
354 -348 50 -207 -54 -420 -254 -518 -75 -37 -78 -38 -191 -38 -110 0 -119 2
-185 33 -92 43 -150 92 -198 166 -125 194 -98 430 68 590 106 102 261 146 406
115z"/>
<path d="M5592 990 c-73 -26 -111 -52 -166 -110 -155 -166 -151 -416 8 -576
204 -203 540 -147 668 113 31 64 33 73 33 178 0 102 -2 115 -31 175 -52 111
-124 176 -237 219 -76 28 -199 28 -275 1z m241 -55 c91 -27 165 -93 214 -189
38 -73 43 -189 14 -268 -42 -110 -133 -193 -246 -223 -205 -56 -407 85 -440
308 -18 119 69 287 179 344 83 44 192 55 279 28z"/>
<path d="M5610 888 c-75 -29 -151 -106 -176 -178 -30 -88 -25 -174 15 -254 96
-196 351 -236 507 -80 59 59 84 125 84 220 0 70 -4 89 -31 142 -73 146 -243
210 -399 150z m170 -33 c0 -23 -3 -25 -49 -25 -35 0 -51 4 -55 16 -10 26 3 34
55 34 46 0 49 -2 49 -25z m-50 -45 c67 0 68 0 74 30 l6 31 47 -25 c27 -13 61
-38 78 -55 l29 -32 -27 -22 -28 -22 22 -63 c21 -62 23 -64 50 -58 27 5 29 3
29 -25 0 -18 -12 -58 -27 -91 l-26 -59 -23 22 c-21 20 -27 21 -49 9 -13 -7
-39 -25 -57 -40 -30 -25 -32 -29 -20 -55 7 -15 10 -30 7 -33 -8 -8 -159 -7
-173 2 -9 5 -8 13 3 30 17 26 11 38 -46 80 -42 30 -57 32 -74 9 -7 -9 -17 -13
-24 -8 -19 11 -51 93 -51 130 0 31 3 34 33 37 30 3 33 7 51 62 18 57 18 60 1
72 -10 7 -23 15 -29 17 -17 7 44 66 94 92 l45 23 9 -29 c9 -28 11 -29 76 -29z
m-221 -89 c12 -8 12 -16 -3 -54 -14 -36 -21 -44 -36 -40 -24 6 -25 22 -6 68
16 37 22 40 45 26z m490 -40 c16 -49 14 -61 -12 -61 -18 0 -25 8 -34 43 -10
36 -10 44 4 55 20 14 26 9 42 -37z m-404 -277 c29 -22 33 -29 24 -45 -8 -16
-13 -17 -32 -8 -43 22 -68 51 -56 66 16 18 26 17 64 -13z m323 14 c18 -18 15
-25 -25 -53 -45 -30 -49 -30 -57 -8 -5 12 3 26 26 45 38 32 40 32 56 16z"/>
<path d="M5695 750 c-106 -22 -160 -155 -98 -239 84 -113 244 -88 283 44 32
110 -71 219 -185 195z m50 -50 c0 -22 -29 -18 -33 3 -3 14 1 18 15 15 10 -2
18 -10 18 -18z m20 -65 c29 -28 31 -42 9 -73 -29 -42 -104 -18 -104 34 0 21
41 64 62 64 5 0 20 -11 33 -25z m-117 -8 c2 -12 -3 -17 -17 -17 -12 0 -21 6
-21 13 0 31 32 34 38 4z m200 0 c2 -12 -3 -17 -17 -17 -12 0 -21 6 -21 13 0
31 32 34 38 4z m-163 -117 c0 -8 -8 -16 -17 -18 -13 -2 -18 3 -18 18 0 15 5
20 18 18 9 -2 17 -10 17 -18z m120 -1 c0 -7 -8 -15 -17 -17 -18 -3 -25 18 -11
32 10 10 28 1 28 -15z"/>
<path d="M5712 621 c-21 -13 -10 -46 16 -49 27 -4 40 22 22 43 -14 17 -20 18
-38 6z"/>
</g>
</svg>
